<svg xmlns="http://www.w3.org/2000/svg" xmlns:xlink="http://www.w3.org/1999/xlink" width="500" zoomAndPan="magnify" viewBox="0 0 375 374.999991" height="500" preserveAspectRatio="xMidYMid meet" version="1.0"><defs><g/><clipPath id="132e5e205d"><rect x="0" width="336" y="0" height="178"/></clipPath></defs><g transform="matrix(1, 0, 0, 1, 16, 108)"><g clip-path="url(#132e5e205d)"><g fill="#000000" fill-opacity="1"><g transform="translate(0.978174, 143.736706)"><g><path d="M 45.71875 -3.203125 C 44.695312 -3.710938 44.003906 -4.320312 43.640625 -5.03125 C 43.285156 -5.75 43.0625 -6.46875 42.96875 -7.1875 L 42.5 -13.609375 C 42.5 -14.421875 42.296875 -14.828125 41.890625 -14.828125 C 41.585938 -14.828125 41.28125 -14.570312 40.96875 -14.0625 C 38.320312 -9.78125 35.546875 -6.363281 32.640625 -3.8125 C 29.734375 -1.269531 27.109375 0 24.765625 0 C 21.203125 0 17.632812 -1.296875 14.0625 -3.890625 C 10.5 -6.492188 7.566406 -9.910156 5.265625 -14.140625 C 2.972656 -18.367188 1.828125 -22.878906 1.828125 -27.671875 C 1.828125 -34.097656 2.566406 -40.316406 4.046875 -46.328125 C 5.523438 -52.335938 7.691406 -57.765625 10.546875 -62.609375 C 13.398438 -67.453125 16.890625 -71.300781 21.015625 -74.15625 C 25.148438 -77.007812 29.867188 -78.4375 35.171875 -78.4375 C 37.710938 -78.4375 40.921875 -77.847656 44.796875 -76.671875 C 48.671875 -75.503906 52.75 -73.925781 57.03125 -71.9375 C 61.3125 -69.945312 65.285156 -67.726562 68.953125 -65.28125 C 70.171875 -64.570312 70.78125 -63.503906 70.78125 -62.078125 C 70.78125 -61.867188 70.726562 -61.535156 70.625 -61.078125 C 70.53125 -60.617188 70.484375 -60.390625 70.484375 -60.390625 C 68.441406 -53.148438 66.804688 -45.882812 65.578125 -38.59375 C 64.359375 -31.3125 63.46875 -24.535156 62.90625 -18.265625 C 62.351562 -12.003906 62.023438 -6.832031 61.921875 -2.75 C 61.710938 -1.125 60.847656 -0.3125 59.328125 -0.3125 C 57.992188 -0.3125 56.332031 -0.515625 54.34375 -0.921875 C 52.363281 -1.328125 50.53125 -1.757812 48.84375 -2.21875 C 47.164062 -2.675781 46.125 -3.003906 45.71875 -3.203125 Z M 39.59375 -29.046875 C 40.71875 -30.066406 41.382812 -31.238281 41.59375 -32.5625 C 42 -34.601562 42.457031 -36.894531 42.96875 -39.4375 C 43.476562 -41.988281 43.984375 -44.460938 44.484375 -46.859375 C 44.992188 -49.253906 45.398438 -51.316406 45.703125 -53.046875 C 46.015625 -54.785156 46.171875 -55.804688 46.171875 -56.109375 C 46.171875 -57.335938 45.609375 -58.15625 44.484375 -58.5625 C 42.242188 -59.375 40.460938 -59.78125 39.140625 -59.78125 C 36.691406 -59.78125 34.5 -58.65625 32.5625 -56.40625 C 30.625 -54.164062 28.992188 -51.363281 27.671875 -48 C 26.347656 -44.644531 25.351562 -41.179688 24.6875 -37.609375 C 24.03125 -34.046875 23.703125 -30.9375 23.703125 -28.28125 C 23.703125 -26.039062 23.929688 -24.234375 24.390625 -22.859375 C 24.847656 -21.484375 25.429688 -20.796875 26.140625 -20.796875 C 27.773438 -20.796875 29.863281 -21.660156 32.40625 -23.390625 C 34.957031 -25.117188 37.351562 -27.003906 39.59375 -29.046875 Z M 39.59375 -29.046875 "/></g></g></g><g fill="#000000" fill-opacity="1"><g transform="translate(63.343695, 143.736706)"><g><path d="M 33.640625 -66.5 C 34.660156 -67.726562 36.0625 -69.207031 37.84375 -70.9375 C 39.625 -72.675781 41.554688 -74.207031 43.640625 -75.53125 C 45.734375 -76.851562 47.695312 -77.515625 49.53125 -77.515625 C 50.957031 -77.515625 51.875 -76.695312 52.28125 -75.0625 C 52.382812 -74.25 52.4375 -73.304688 52.4375 -72.234375 C 52.4375 -71.171875 52.4375 -69.972656 52.4375 -68.640625 C 52.4375 -66.609375 52.410156 -64.441406 52.359375 -62.140625 C 52.304688 -59.847656 52.234375 -57.6875 52.140625 -55.65625 C 52.140625 -53.820312 51.171875 -52.75 49.234375 -52.4375 C 46.890625 -52.03125 44.082031 -51.421875 40.8125 -50.609375 C 37.550781 -49.796875 34.597656 -48.925781 31.953125 -48 C 31.035156 -47.695312 30.320312 -47.160156 29.8125 -46.390625 C 29.300781 -45.628906 28.945312 -44.84375 28.75 -44.03125 C 27.832031 -39.644531 26.835938 -34.800781 25.765625 -29.5 C 24.691406 -24.207031 23.722656 -19.164062 22.859375 -14.375 C 21.992188 -9.582031 21.304688 -5.707031 20.796875 -2.75 C 20.390625 -1.125 19.421875 -0.3125 17.890625 -0.3125 C 16.972656 -0.3125 15.441406 -0.5625 13.296875 -1.0625 C 11.160156 -1.570312 9.019531 -2.179688 6.875 -2.890625 C 4.738281 -3.609375 3.160156 -4.222656 2.140625 -4.734375 C 1.523438 -5.046875 1.066406 -5.53125 0.765625 -6.1875 C 0.460938 -6.851562 0.3125 -7.539062 0.3125 -8.25 C 0.3125 -8.5625 0.332031 -8.894531 0.375 -9.25 C 0.425781 -9.601562 0.453125 -9.78125 0.453125 -9.78125 L 11.3125 -75.828125 C 11.519531 -76.648438 11.953125 -77.289062 12.609375 -77.75 C 13.273438 -78.207031 13.960938 -78.4375 14.671875 -78.4375 C 15.492188 -78.4375 16.972656 -78.226562 19.109375 -77.8125 C 21.253906 -77.40625 23.367188 -76.945312 25.453125 -76.4375 C 27.546875 -75.9375 28.898438 -75.53125 29.515625 -75.21875 C 31.035156 -74.507812 31.796875 -73.335938 31.796875 -71.703125 L 31.953125 -67.125 C 31.953125 -66.207031 32.15625 -65.75 32.5625 -65.75 C 32.769531 -65.75 33.128906 -66 33.640625 -66.5 Z M 33.640625 -66.5 "/></g></g></g><g fill="#000000" fill-opacity="1"><g transform="translate(105.53156, 143.736706)"><g><path d="M 33.640625 -66.5 C 34.660156 -67.726562 36.0625 -69.207031 37.84375 -70.9375 C 39.625 -72.675781 41.554688 -74.207031 43.640625 -75.53125 C 45.734375 -76.851562 47.695312 -77.515625 49.53125 -77.515625 C 50.957031 -77.515625 51.875 -76.695312 52.28125 -75.0625 C 52.382812 -74.25 52.4375 -73.304688 52.4375 -72.234375 C 52.4375 -71.171875 52.4375 -69.972656 52.4375 -68.640625 C 52.4375 -66.609375 52.410156 -64.441406 52.359375 -62.140625 C 52.304688 -59.847656 52.234375 -57.6875 52.140625 -55.65625 C 52.140625 -53.820312 51.171875 -52.75 49.234375 -52.4375 C 46.890625 -52.03125 44.082031 -51.421875 40.8125 -50.609375 C 37.550781 -49.796875 34.597656 -48.925781 31.953125 -48 C 31.035156 -47.695312 30.320312 -47.160156 29.8125 -46.390625 C 29.300781 -45.628906 28.945312 -44.84375 28.75 -44.03125 C 27.832031 -39.644531 26.835938 -34.800781 25.765625 -29.5 C 24.691406 -24.207031 23.722656 -19.164062 22.859375 -14.375 C 21.992188 -9.582031 21.304688 -5.707031 20.796875 -2.75 C 20.390625 -1.125 19.421875 -0.3125 17.890625 -0.3125 C 16.972656 -0.3125 15.441406 -0.5625 13.296875 -1.0625 C 11.160156 -1.570312 9.019531 -2.179688 6.875 -2.890625 C 4.738281 -3.609375 3.160156 -4.222656 2.140625 -4.734375 C 1.523438 -5.046875 1.066406 -5.53125 0.765625 -6.1875 C 0.460938 -6.851562 0.3125 -7.539062 0.3125 -8.25 C 0.3125 -8.5625 0.332031 -8.894531 0.375 -9.25 C 0.425781 -9.601562 0.453125 -9.78125 0.453125 -9.78125 L 11.3125 -75.828125 C 11.519531 -76.648438 11.953125 -77.289062 12.609375 -77.75 C 13.273438 -78.207031 13.960938 -78.4375 14.671875 -78.4375 C 15.492188 -78.4375 16.972656 -78.226562 19.109375 -77.8125 C 21.253906 -77.40625 23.367188 -76.945312 25.453125 -76.4375 C 27.546875 -75.9375 28.898438 -75.53125 29.515625 -75.21875 C 31.035156 -74.507812 31.796875 -73.335938 31.796875 -71.703125 L 31.953125 -67.125 C 31.953125 -66.207031 32.15625 -65.75 32.5625 -65.75 C 32.769531 -65.75 33.128906 -66 33.640625 -66.5 Z M 33.640625 -66.5 "/></g></g></g><g fill="#000000" fill-opacity="1"><g transform="translate(147.719425, 143.736706)"><g><path d="M 24.921875 -110.6875 C 27.367188 -110.6875 29.835938 -110.253906 32.328125 -109.390625 C 34.828125 -108.523438 36.914062 -107.175781 38.59375 -105.34375 C 40.28125 -103.507812 41.125 -101.0625 41.125 -98 C 41.125 -93.925781 39.796875 -90.585938 37.140625 -87.984375 C 34.492188 -85.390625 30.878906 -84.09375 26.296875 -84.09375 C 21.910156 -84.09375 18.671875 -85.390625 16.578125 -87.984375 C 14.492188 -90.585938 13.453125 -93.617188 13.453125 -97.078125 C 13.453125 -99.734375 14.140625 -102.078125 15.515625 -104.109375 C 16.890625 -106.148438 18.394531 -107.832031 20.03125 -109.15625 C 21.457031 -110.175781 23.085938 -110.6875 24.921875 -110.6875 Z M 21.25 -2.75 C 20.945312 -1.019531 19.976562 -0.15625 18.34375 -0.15625 C 17.53125 -0.15625 16.078125 -0.410156 13.984375 -0.921875 C 11.898438 -1.429688 9.785156 -1.988281 7.640625 -2.59375 C 5.503906 -3.207031 3.976562 -3.71875 3.0625 -4.125 C 1.425781 -4.84375 0.609375 -6.066406 0.609375 -7.796875 C 0.609375 -10.347656 0.863281 -13.890625 1.375 -18.421875 C 1.882812 -22.960938 2.570312 -27.957031 3.4375 -33.40625 C 4.300781 -38.863281 5.269531 -44.316406 6.34375 -49.765625 C 7.414062 -55.222656 8.460938 -60.191406 9.484375 -64.671875 C 10.503906 -69.160156 11.421875 -72.675781 12.234375 -75.21875 C 12.742188 -76.851562 13.96875 -77.671875 15.90625 -77.671875 C 16.613281 -77.671875 17.9375 -77.46875 19.875 -77.0625 C 21.8125 -76.65625 23.898438 -76.171875 26.140625 -75.609375 C 28.390625 -75.046875 30.222656 -74.457031 31.640625 -73.84375 C 33.066406 -73.332031 33.78125 -72.414062 33.78125 -71.09375 C 33.78125 -70.988281 33.753906 -70.785156 33.703125 -70.484375 C 33.660156 -70.179688 33.640625 -70.03125 33.640625 -70.03125 C 32.410156 -65.03125 31.179688 -59.570312 29.953125 -53.65625 C 28.734375 -47.75 27.5625 -41.765625 26.4375 -35.703125 C 25.320312 -29.640625 24.304688 -23.753906 23.390625 -18.046875 C 22.472656 -12.335938 21.757812 -7.238281 21.25 -2.75 Z M 21.25 -2.75 "/></g></g></g><g fill="#000000" fill-opacity="1"><g transform="translate(171.716824, 143.736706)"><g><path d="M 50.140625 -75.375 C 50.554688 -76.800781 51.425781 -77.515625 52.75 -77.515625 C 53.769531 -77.515625 55.296875 -77.054688 57.328125 -76.140625 C 59.367188 -75.222656 61.40625 -74.148438 63.4375 -72.921875 C 65.476562 -71.703125 67.007812 -70.632812 68.03125 -69.71875 C 69.363281 -68.5 70.03125 -67.222656 70.03125 -65.890625 C 70.03125 -65.796875 70.003906 -65.617188 69.953125 -65.359375 C 69.898438 -65.109375 69.875 -64.984375 69.875 -64.984375 C 69.15625 -62.023438 67.976562 -58.300781 66.34375 -53.8125 C 64.71875 -49.332031 62.804688 -44.539062 60.609375 -39.4375 C 58.421875 -34.34375 56.101562 -29.320312 53.65625 -24.375 C 51.21875 -19.4375 48.773438 -14.976562 46.328125 -11 C 43.878906 -7.03125 41.632812 -3.972656 39.59375 -1.828125 C 38.570312 -0.816406 37.195312 -0.3125 35.46875 -0.3125 C 33.53125 -0.3125 30.957031 -0.867188 27.75 -1.984375 C 24.539062 -3.109375 21.40625 -4.410156 18.34375 -5.890625 C 15.289062 -7.367188 13 -8.71875 11.46875 -9.9375 C 10.75 -10.445312 10.210938 -11.1875 9.859375 -12.15625 C 9.503906 -13.125 9.273438 -14.015625 9.171875 -14.828125 C 9.066406 -18.296875 8.960938 -23.0625 8.859375 -29.125 C 8.765625 -35.1875 8.71875 -41.582031 8.71875 -48.3125 C 8.71875 -53.101562 8.71875 -57.84375 8.71875 -62.53125 C 8.71875 -67.21875 8.769531 -71.445312 8.875 -75.21875 C 8.875 -77.15625 9.835938 -78.125 11.765625 -78.125 C 12.992188 -78.125 14.648438 -78.046875 16.734375 -77.890625 C 18.828125 -77.742188 20.992188 -77.515625 23.234375 -77.203125 C 25.484375 -76.898438 27.320312 -76.597656 28.75 -76.296875 C 29.664062 -76.085938 30.328125 -75.625 30.734375 -74.90625 C 31.140625 -74.195312 31.34375 -73.4375 31.34375 -72.625 C 30.832031 -66.707031 30.421875 -60.515625 30.109375 -54.046875 C 29.804688 -47.578125 29.578125 -41.535156 29.421875 -35.921875 C 29.273438 -30.316406 29.148438 -25.832031 29.046875 -22.46875 C 29.046875 -21.550781 29.203125 -21.09375 29.515625 -21.09375 C 29.816406 -21.09375 30.117188 -21.453125 30.421875 -22.171875 C 31.648438 -24.816406 33.179688 -28.28125 35.015625 -32.5625 C 36.847656 -36.84375 38.707031 -41.503906 40.59375 -46.546875 C 42.476562 -51.597656 44.285156 -56.644531 46.015625 -61.6875 C 47.753906 -66.738281 49.128906 -71.300781 50.140625 -75.375 Z M 50.140625 -75.375 "/></g></g></g><g fill="#000000" fill-opacity="1"><g transform="translate(230.4137, 143.736706)"><g><path d="M 45.71875 -3.203125 C 44.695312 -3.710938 44.003906 -4.320312 43.640625 -5.03125 C 43.285156 -5.75 43.0625 -6.46875 42.96875 -7.1875 L 42.5 -13.609375 C 42.5 -14.421875 42.296875 -14.828125 41.890625 -14.828125 C 41.585938 -14.828125 41.28125 -14.570312 40.96875 -14.0625 C 38.320312 -9.78125 35.546875 -6.363281 32.640625 -3.8125 C 29.734375 -1.269531 27.109375 0 24.765625 0 C 21.203125 0 17.632812 -1.296875 14.0625 -3.890625 C 10.5 -6.492188 7.566406 -9.910156 5.265625 -14.140625 C 2.972656 -18.367188 1.828125 -22.878906 1.828125 -27.671875 C 1.828125 -34.097656 2.566406 -40.316406 4.046875 -46.328125 C 5.523438 -52.335938 7.691406 -57.765625 10.546875 -62.609375 C 13.398438 -67.453125 16.890625 -71.300781 21.015625 -74.15625 C 25.148438 -77.007812 29.867188 -78.4375 35.171875 -78.4375 C 37.710938 -78.4375 40.921875 -77.847656 44.796875 -76.671875 C 48.671875 -75.503906 52.75 -73.925781 57.03125 -71.9375 C 61.3125 -69.945312 65.285156 -67.726562 68.953125 -65.28125 C 70.171875 -64.570312 70.78125 -63.503906 70.78125 -62.078125 C 70.78125 -61.867188 70.726562 -61.535156 70.625 -61.078125 C 70.53125 -60.617188 70.484375 -60.390625 70.484375 -60.390625 C 68.441406 -53.148438 66.804688 -45.882812 65.578125 -38.59375 C 64.359375 -31.3125 63.46875 -24.535156 62.90625 -18.265625 C 62.351562 -12.003906 62.023438 -6.832031 61.921875 -2.75 C 61.710938 -1.125 60.847656 -0.3125 59.328125 -0.3125 C 57.992188 -0.3125 56.332031 -0.515625 54.34375 -0.921875 C 52.363281 -1.328125 50.53125 -1.757812 48.84375 -2.21875 C 47.164062 -2.675781 46.125 -3.003906 45.71875 -3.203125 Z M 39.59375 -29.046875 C 40.71875 -30.066406 41.382812 -31.238281 41.59375 -32.5625 C 42 -34.601562 42.457031 -36.894531 42.96875 -39.4375 C 43.476562 -41.988281 43.984375 -44.460938 44.484375 -46.859375 C 44.992188 -49.253906 45.398438 -51.316406 45.703125 -53.046875 C 46.015625 -54.785156 46.171875 -55.804688 46.171875 -56.109375 C 46.171875 -57.335938 45.609375 -58.15625 44.484375 -58.5625 C 42.242188 -59.375 40.460938 -59.78125 39.140625 -59.78125 C 36.691406 -59.78125 34.5 -58.65625 32.5625 -56.40625 C 30.625 -54.164062 28.992188 -51.363281 27.671875 -48 C 26.347656 -44.644531 25.351562 -41.179688 24.6875 -37.609375 C 24.03125 -34.046875 23.703125 -30.9375 23.703125 -28.28125 C 23.703125 -26.039062 23.929688 -24.234375 24.390625 -22.859375 C 24.847656 -21.484375 25.429688 -20.796875 26.140625 -20.796875 C 27.773438 -20.796875 29.863281 -21.660156 32.40625 -23.390625 C 34.957031 -25.117188 37.351562 -27.003906 39.59375 -29.046875 Z M 39.59375 -29.046875 "/></g></g></g><g fill="#000000" fill-opacity="1"><g transform="translate(292.779221, 143.736706)"><g><path d="M 21.40625 -2.75 C 21.195312 -1.125 20.28125 -0.3125 18.65625 -0.3125 C 17.832031 -0.3125 16.375 -0.5625 14.28125 -1.0625 C 12.195312 -1.570312 10.109375 -2.160156 8.015625 -2.828125 C 5.929688 -3.492188 4.429688 -4.03125 3.515625 -4.4375 C 1.878906 -5.039062 1.0625 -6.414062 1.0625 -8.5625 C 1.164062 -12.539062 1.570312 -17.28125 2.28125 -22.78125 C 3 -28.28125 3.894531 -34.191406 4.96875 -40.515625 C 6.039062 -46.835938 7.238281 -53.207031 8.5625 -59.625 C 9.882812 -66.050781 11.234375 -72.191406 12.609375 -78.046875 C 13.984375 -83.910156 15.332031 -89.132812 16.65625 -93.71875 C 17.988281 -98.3125 19.164062 -101.828125 20.1875 -104.265625 C 20.894531 -105.691406 22.015625 -106.40625 23.546875 -106.40625 C 24.566406 -106.40625 26.222656 -106.097656 28.515625 -105.484375 C 30.804688 -104.878906 33.070312 -104.242188 35.3125 -103.578125 C 37.5625 -102.921875 39.039062 -102.390625 39.75 -101.984375 C 41.070312 -101.367188 41.734375 -100.398438 41.734375 -99.078125 C 41.734375 -98.867188 41.707031 -98.660156 41.65625 -98.453125 C 41.613281 -98.253906 41.59375 -98.15625 41.59375 -98.15625 C 40.257812 -94.488281 38.703125 -89.289062 36.921875 -82.5625 C 35.140625 -75.832031 33.253906 -68.109375 31.265625 -59.390625 C 29.273438 -50.679688 27.414062 -41.457031 25.6875 -31.71875 C 23.957031 -21.988281 22.53125 -12.332031 21.40625 -2.75 Z M 21.40625 -2.75 "/></g></g></g></g></g></svg>